<svg width="265" height="241" viewBox="0 0 265 241" fill="none" xmlns="http://www.w3.org/2000/svg">
<path d="M-1.15835e-05 132.5C-9.59466e-06 109.75 5.8576 87.3834 17.0087 67.5538C28.1598 47.7242 44.2287 31.0998 63.6681 19.2816C83.1074 7.46331 105.262 0.849299 127.999 0.0764899C150.736 -0.69632 173.289 4.3981 193.485 14.8692C213.682 25.3402 230.843 40.8352 243.315 59.8618C255.787 78.8884 263.149 100.806 264.694 123.503C266.239 146.201 261.914 168.913 252.135 189.454C242.356 209.995 227.453 227.673 208.861 240.783L173.239 190.27C183.158 183.275 191.108 173.844 196.325 162.885C201.543 151.927 203.85 139.809 203.026 127.7C202.202 115.591 198.274 103.898 191.62 93.7473C184.966 83.5965 175.811 75.3299 165.036 69.7436C154.261 64.1572 142.229 61.4393 130.099 61.8516C117.969 62.2639 106.149 65.7925 95.7779 72.0976C85.407 78.4027 76.8342 87.2719 70.885 97.851C64.9359 108.43 61.8108 120.363 61.8108 132.5L-1.15835e-05 132.5Z" fill="url(#paint0_linear_10_17)"/>
<defs>
<linearGradient id="paint0_linear_10_17" x1="132.5" y1="1.89341e-05" x2="132.5" y2="265" gradientUnits="userSpaceOnUse">
<stop stop-color="#1D8983" stop-opacity="0.58"/>
<stop offset="1" stop-opacity="0"/>
</linearGradient>
</defs>
</svg>
